<?xml version="1.0" encoding="UTF-8"?>
<svg width="270px" height="160px" viewBox="0 0 270 160" version="1.1" xmlns="http://www.w3.org/2000/svg" xmlns:xlink="http://www.w3.org/1999/xlink">
    <title>编组 10</title>
    <g id="我的" stroke="none" stroke-width="1" fill="none" fill-rule="evenodd">
        <g id="编组-10">
            <rect id="矩形" fill-opacity="0" fill="#FFFFFF" x="0" y="0" width="270" height="160"></rect>
            <path d="M176.887555,72.7877727 L184.509335,76.0315403 L182.915152,79.7970834 L200.50542,85.976295 L198.207921,91.4031071 L180.617653,85.2238955 L179.797118,87.1620427 L179.736686,87.3218939 C179.594985,87.7478361 179.608898,88.171157 179.778425,88.5918567 C179.969144,89.0651439 180.322245,89.4114801 180.837727,89.6308654 L180.837727,89.6308654 L195.694676,95.9538616 L191.157,100.061773 L211.666,100.066773 L211.666667,90.0197368 L206.666667,90.0197368 L206.666667,84.1710526 L224.153,84.1707727 L216.363959,81.783587 L216.59311,84.1184681 L209.822472,82.0430291 L209.034877,73.3092105 L234.855106,81.2240203 L233.118418,86.9194191 L224.166,84.1747727 L224.166667,90.0197368 L219.166667,90.0197368 L219.166,100.068773 L226.666,100.070773 L226.666667,92.5263158 L239.166667,92.5263158 L239.166667,90.0197368 L234.020494,90.0197368 L234.020494,84.0707127 L239.166667,84.1710526 L239.166667,80.8289474 L247.5,80.8289474 L247.5,84.1710526 L251.681736,84.0707127 L251.199518,81.0090454 L258.6739,81.0090454 L260,90.0197368 L247.5,90.0197368 L247.5,92.5263158 L255.238095,92.5263158 C256.564195,92.5263158 257.689371,93.175671 258.613623,94.0961722 C259.476257,94.9553067 259.936329,95.9713267 259.993838,97.1442321 L260,97.3979703 L260,124.276316 L252.5,124.276316 L252.5,119.263158 L247.5,119.263158 L247.5,140.151316 L239.166667,137.644737 L239.166667,119.263158 L234.166667,119.263158 L234.166667,124.276316 L226.666667,124.276316 L226.666,106.013773 L219.166,106.004773 L219.166667,117.592105 C219.500868,117.801875 219.666703,118.178353 219.920044,118.562345 L220.034722,118.726908 C220.358796,119.045154 220.784144,119.204277 221.310764,119.204277 L221.310764,119.204277 L224.166667,119.204277 L222.282986,124.276316 L217.96875,124.276316 C217.037037,124.276316 216.226852,124.117193 215.538194,123.798947 C214.728009,123.480702 214.059606,123.023224 213.532986,122.426513 C213.249421,122.148048 213.006366,121.829803 212.803819,121.471776 C212.601273,121.11375 212.418981,120.755724 212.256944,120.397698 C211.892361,119.562303 211.666667,118.707018 211.666667,117.831842 L211.666667,117.831842 L211.666,105.995773 L127.5,105.894737 L127.5,124.276316 L119.166667,121.769737 L119.166667,105.894737 L96.6666667,106.014812 L96.6666667,100.071068 L119.166667,100.046053 L119.166667,95.8684211 L127.5,95.8684211 L127.5,100.046053 L154.966,100.052773 L154.966216,90.8552632 L150,90.8552632 L157.153716,80.8289474 L167.5,80.8289474 L161.706081,89.2877271 L163.333333,89.1842105 L163.333,100.054773 L190.144,100.061773 L174.540203,93.4206527 L174.262455,93.2951695 C172.900246,92.6426682 171.936044,91.6138819 171.369848,90.2088105 C170.765906,88.7100678 170.79215,87.1854376 171.448578,85.6349198 L171.448578,85.6349198 L172.784878,82.4785087 L165.993136,80.0454707 L168.290635,74.6186585 L175.082377,77.0516965 L176.887555,72.7877727 Z M41.9414588,100.881579 L56.6666667,134.302632 L48.0585412,134.302632 L33.3333333,100.881579 L41.9414588,100.881579 Z M62.5,80.8289474 L62.5,86.7508418 L22.5,86.7508418 L22.5,90.8552632 L59.08,90.8552632 L59.08,116.360314 L62.5,124.276316 L54.28,124.276316 L50.86,116.360314 L50.86,96.7039474 L22.5,96.7039474 L22.5,117.266726 C22.5,117.790431 21.94,118.233566 22.3,118.596131 C22.66,118.958696 23.1,119.139979 23.62,119.139979 L23.62,119.139979 L30.16,119.139979 L32.44,124.276316 L20.02,124.276316 C19.1,124.276316 18.25,124.105105 17.47,123.762682 C16.69,123.42026 16.01,122.956982 15.43,122.37285 C14.85,121.788717 14.39,121.103872 14.05,120.318315 C13.71,119.532757 14.1666667,118.676701 14.1666667,117.750146 L14.1666667,117.750146 L14.1666667,86.7508418 L10,86.7508418 L10,80.8289474 L62.5,80.8289474 Z M111.666667,111.743421 L105.953361,124.276316 L97.5,124.276316 L103.213306,111.743421 L111.666667,111.743421 Z M143.453361,111.743421 L149.166667,124.276316 L140.713306,124.276316 L135,111.743421 L143.453361,111.743421 Z M187.518896,109.236842 L187.518896,115.157895 L185.825775,116.105263 L195.379819,116.105263 L209.166667,124.276316 L196.952003,124.276316 L184.374528,116.875 L170.648148,124.276316 L155.833333,124.276316 L177.602041,112.552632 L177.602041,109.236842 L187.518896,109.236842 Z M155.833333,106.730263 L164.166667,112.087888 L164.166667,116.756579 L155.833333,116.756579 L155.833333,106.730263 Z M239.166667,111.743421 L234.166667,111.743421 L234.166667,115.085526 L239.166667,115.085526 L239.166667,111.743421 Z M252.5,111.743421 L246.666667,111.743421 L246.666667,115.085526 L252.5,115.085526 L252.5,111.743421 Z M250.814815,100.881579 L246.666667,100.881579 L246.666667,104.223684 L252.5,104.223684 L252.5,102.141717 L252.492222,101.967489 C252.471481,101.736647 252.409259,101.511648 252.305556,101.292494 C252.175926,101.01855 251.679012,100.881579 250.814815,100.881579 Z M239.166667,100.881579 L234.166667,100.881579 L234.166667,104.223684 L239.166667,104.223684 L239.166667,100.881579 Z M105.784322,79.5914621 L103.981983,83.6317531 L131.67402,80.2226506 L132.705035,88.6416883 L132.732415,88.8104191 C132.82211,89.2503328 133.045265,89.6099646 133.401877,89.8893144 C133.803067,90.2035829 134.261724,90.3289477 134.777848,90.2654089 L134.777848,90.2654089 L138.172356,89.8475189 L136.335491,96.0740084 L131.928586,96.6165323 L131.587978,96.650414 C130.797473,96.7101658 130.036702,96.6347785 129.305663,96.424252 C128.470191,96.1836502 127.71813,95.801459 127.04948,95.2776781 C126.380831,94.7538973 125.829026,94.1147159 125.394065,93.3601341 C124.959104,92.6055522 124.685563,91.7704885 124.573443,90.8549431 L124.573443,90.8549431 L124.120089,87.1529549 L101.13272,89.9828765 L96.1969241,101.015374 L86.6089283,102.19573 L91.5447247,91.1632324 L87.4355836,91.6690992 L86.7116797,85.75786 L94.3939869,84.812109 L96.196326,80.771818 L105.784322,79.5914621 Z" id="形状结合" fill="#FFFFFF" fill-rule="nonzero"></path>
            <g id="编组-9" transform="translate(65.893003, 61.527134) rotate(-26.000000) translate(-65.893003, -61.527134) translate(35.654608, 30.158725)">
                <path d="M24.8143352,4.06361273 L25.0312657,4.06453163 C25.8374375,4.09511555 26.6015402,4.43223908 27.167585,5.00707962 L27.167585,5.00707962 L27.9931335,5.84545629 C30.7889957,8.6847633 34.6071674,10.2835727 38.5919521,10.2835727 L38.5919521,10.2835727 L41.9805684,10.2835727 C45.6658687,10.2835727 49.168336,8.67811585 51.5738818,5.88620102 L51.5738818,5.88620102 L51.9093897,5.49680513 C52.4801794,4.83433747 53.2654506,4.46594381 54.0736412,4.40586449 C54.8818319,4.34578518 55.7129421,4.5940202 56.3754097,5.16480991 C57.0157444,5.71652963 57.4089385,6.50134615 57.4674638,7.34455312 L57.4674638,7.34455312 L59.9232837,42.726941 C60.2945024,48.0752986 58.4627276,53.0677937 55.2010588,56.8160041 C51.9393899,60.5642145 47.247827,63.0681402 41.8994694,63.4393588 C41.424801,63.4723046 40.9490818,63.4877897 40.4732756,63.4857827 L40.4732756,63.4857827 L39.7796994,63.4828571 C34.394971,63.4601439 29.5292207,61.2569885 26.0153308,57.7133294 C22.501441,54.1696702 20.3394115,49.2855072 20.3621247,43.9007788 C20.3630487,43.6817191 20.367664,43.4626905 20.3759686,43.2437864 L20.3759686,43.2437864 L21.7468272,7.10887376 C21.7799776,6.23505149 22.1641761,5.45739076 22.7585425,4.9064732 C23.352909,4.35555563 24.1574434,4.03138123 25.0312657,4.06453163 Z" id="路径-6" stroke="#FFFFFF" stroke-width="1.66666667" stroke-linejoin="round"></path>
                <ellipse id="椭圆形" stroke="#FFFFFF" stroke-width="1.16666667" cx="33.8408568" cy="20.6789374" rx="2.75" ry="2.75877193"></ellipse>
                <ellipse id="椭圆形备份" stroke="#FFFFFF" stroke-width="1.16666667" cx="49.861556" cy="20.1468434" rx="2.75" ry="2.75877193"></ellipse>
                <path d="M-7.57912251e-13,-3.79953379e-13 C6.91193516,3.64327442 10.3679027,11.6651182 10.3679027,24.0655312 C10.3679027,42.6661509 7.66498439,58.6898833 18.5353103,60.8338706 C22.4086714,61.5978254 25.1191235,59.6183204 26.6666667,54.8953557" id="路径-6备份" stroke="#FFFFFF" stroke-width="0.833333333" stroke-linecap="round" stroke-linejoin="round"></path>
                <path d="M7.48640392,6.716887 C7.48640392,6.716887 5.40307059,5.33237142 3.31973725,9.85957831" id="路径-7" stroke="#FFFFFF" stroke-width="0.833333333" stroke-linecap="round" stroke-linejoin="round"></path>
                <path d="M40.6110194,38.4925586 C44.0845103,38.4925586 47.162855,37.800827 49.8460535,36.4173637 C50.7098294,36.4173637 51.3799377,37.9763484 51.8563783,41.0943178 C52.3119848,39.9333366 52.319269,37.9390846 51.8782308,35.1115618 C52.2001627,34.3708662 53.503103,33.1492984 55.7870516,31.4468584 C56.9769999,39.834242 57.274487,45.3782743 56.6795129,48.0789553 C56.2857431,49.8663381 55.1013333,52.5315569 53.0226109,54.9520224 C53.0226109,54.1341403 52.6338667,52.6875413 51.8563783,50.6122255 C52.0716382,54.141287 51.9421513,56.1202287 51.4679178,56.5490504 C48.8795611,58.8895504 45.2994121,60.6902794 40.6110194,60.6902794 C35.999604,60.6902794 32.3222193,58.9249263 29.6019947,56.6255748 C29.4116392,55.3233279 29.48843,53.3188782 29.8323674,50.6122255 C28.7099509,52.195534 28.1487427,53.7443682 28.1487427,55.2587281 C25.7341481,52.7369526 24.3313676,49.9006606 23.965367,48.0789553 C23.4380859,45.4545044 23.5589825,39.9104721 24.3280569,31.4468584 C27.9155056,32.9037149 29.5783071,34.250708 29.3164614,35.4878376 C28.9231773,37.3459682 29.0951459,39.2138078 29.8323674,41.0913564 C29.8469357,37.9753613 30.3015006,36.4173637 31.1960621,36.4173637 C34.140953,37.8542924 37.0710462,38.4925586 40.6110194,38.4925586 Z" id="路径-8" fill="#FFFFFF"></path>
            </g>
        </g>
    </g>
</svg>