<?xml version="1.0" encoding="UTF-8"?>
<svg width="324px" height="152px" viewBox="0 0 324 152" version="1.1" xmlns="http://www.w3.org/2000/svg" xmlns:xlink="http://www.w3.org/1999/xlink">
    <title>编组 10</title>
    <g id="我的" stroke="none" stroke-width="1" fill="none" fill-rule="evenodd">
        <g id="编组-10">
            <rect id="矩形" fill-opacity="0" fill="#FFFFFF" x="0" y="0" width="324" height="152"></rect>
            <path d="M212.265066,64.375917 L221.411202,68.2582214 L219.498183,72.7650132 L240.606504,80.160605 L237.849505,86.6556873 L216.741184,79.2600955 L215.756542,81.5797677 L215.684023,81.7710856 C215.513982,82.2808747 215.530677,82.7875265 215.734111,83.2910411 C215.962973,83.8574951 216.386694,84.2720077 217.005273,84.534579 L217.005273,84.534579 L234.833611,92.1022595 L229.387,97.018917 L254,97.024917 L254,85 L248,85 L248,78 L268.984,77.999917 L259.63675,75.1425608 L259.911732,77.9370642 L251.786967,75.4530742 L250.841853,65 L281.826127,74.4728432 L279.742102,81.2893835 L269,78.004917 L269,85 L263,85 L263,97.027917 L272,97.029917 L272,88 L287,88 L287,85 L280.824593,85 L280.824593,77.8799081 L287,78 L287,74 L297,74 L297,78 L302.018083,77.8799081 L301.439421,74.2155505 L310.40868,74.2155505 L312,85 L297,85 L297,88 L306.285714,88 C307.877034,88 309.227245,88.777181 310.336347,89.8788833 C311.37613,90.9117292 311.928515,92.1340238 311.993501,93.545767 L312,93.8306416 L312,126 L303,126 L303,120 L297,120 L297,145 L287,142 L287,120 L281,120 L281,126 L272,126 L272,104.141917 L263,104.130917 L263,118 C263.407407,118.255048 263.60631,118.716006 263.91861,119.183122 L264.041667,119.358189 C264.430556,119.739082 264.940972,119.929528 265.572917,119.929528 L265.572917,119.929528 L269,119.929528 L266.739583,126 L261.5625,126 C260.444444,126 259.472222,125.809554 258.645833,125.428661 C257.673611,125.047769 256.871528,124.500236 256.239583,123.786063 C255.899306,123.452782 255.607639,123.07189 255.364583,122.643386 C255.121528,122.214882 254.902778,121.786378 254.708333,121.357874 C254.270833,120.358032 254,119.334384 254,118.28693 L254,118.28693 L254,104.120917 L153,104 L153,126 L143,123 L143,104 L116,104.143713 L116,97.0299401 L143,97 L143,92 L153,92 L153,97 L185.959,97.007917 L185.959459,86 L180,86 L188.584459,74 L201,74 L194.047297,84.1238938 L196,84 L196,97.010917 L228.174,97.018917 L209.448244,89.0703875 L209.15135,88.9374832 C207.497463,88.1574732 206.328286,86.9204098 205.643818,85.2262929 C204.919088,83.4325221 204.950579,81.6077678 205.738293,79.75203 L205.738293,79.75203 L207.341854,75.9742781 L199.191764,73.0622956 L201.948762,66.5672134 L210.098853,69.4791959 L212.265066,64.375917 Z M50.3297505,98 L68,138 L57.6702495,138 L40,98 L50.3297505,98 Z M75,74 L75,81.0876217 L27,81.0876217 L27,86 L70.896,86 L70.896,116.52573 L75,126 L65.136,126 L61.032,116.52573 L61.032,93 L27,93 L27,117.61057 C27,118.237367 26.328,118.767733 26.76,119.201669 C27.192,119.635605 27.72,119.852573 28.344,119.852573 L28.344,119.852573 L36.192,119.852573 L38.928,126 L24.024,126 C22.92,126 21.9,125.795086 20.964,125.385257 C20.028,124.975429 19.212,124.420955 18.516,123.721836 C17.82,123.022717 17.268,122.20306 16.86,121.262865 C16.452,120.32267 17,119.298099 17,118.189152 L17,118.189152 L17,81.0876217 L12,81.0876217 L12,74 L75,74 Z M134,111 L127.144033,126 L117,126 L123.855967,111 L134,111 Z M172.144033,111 L179,126 L168.855967,126 L162,111 L172.144033,111 Z M225.022676,108 L225.022676,115.086614 L222.99093,116.220472 L234.455782,116.220472 L251,126 L236.342404,126 L221.249433,117.141732 L204.777778,126 L187,126 L213.122449,111.968504 L213.122449,108 L225.022676,108 Z M187,105 L197,111.412275 L197,117 L187,117 L187,105 Z M287,111 L281,111 L281,115 L287,115 L287,111 Z M303,111 L296,111 L296,115 L303,115 L303,111 Z M300.977778,98 L296,98 L296,102 L303,102 L303,99.5081967 L302.990667,99.2996721 C302.965778,99.023388 302.891111,98.7540984 302.766667,98.4918033 C302.611111,98.1639344 302.014815,98 300.977778,98 Z M287,98 L281,98 L281,102 L287,102 L287,98 Z M126.941186,72.5189153 L124.778379,77.3545391 L158.008824,73.2743535 L159.246042,83.350682 L159.278898,83.5526276 C159.386532,84.0791385 159.654317,84.5095639 160.082253,84.8439038 C160.56368,85.2200362 161.114069,85.3700791 161.733417,85.2940327 L161.733417,85.2940327 L165.806827,84.7938809 L163.602589,92.2460573 L158.314303,92.8953772 L157.950772,92.9324009 C156.985958,93.0102662 156.057966,92.9212147 155.166796,92.6652464 C154.164229,92.3772822 153.261756,91.9198564 152.459377,91.2929691 C151.656997,90.6660818 150.994831,89.9010773 150.472878,88.9979557 C149.950924,88.0948341 149.622676,87.0953878 149.488132,85.9996169 L149.488132,85.9996169 L148.944107,81.5688909 L121.359265,84.9558837 L115.436309,98.1601328 L103.930714,99.5728423 L109.85367,86.3685931 L104.9227,86.97404 L104.054016,79.899171 L113.272784,78.7672485 L115.435591,73.9316247 L126.941186,72.5189153 Z" id="形状结合" fill="#FFFFFF" fill-rule="nonzero"></path>
            <g id="编组-9" transform="translate(79.071604, 50.898617) rotate(-26.000000) translate(-79.071604, -50.898617) translate(42.785530, 13.355325)">
                <path d="M29.7972902,4.85799907 L30.0377186,4.85966282 C31.0032666,4.89638943 31.9185621,5.29955576 32.5974177,5.98715068 L32.5974177,5.98715068 L33.5908377,6.99335949 C36.9464483,10.3921686 41.5236376,12.3052733 46.2998313,12.3052733 L46.2998313,12.3052733 L50.3878588,12.3052733 C54.8043108,12.3052733 59.0023623,10.3842762 61.8895072,7.04220457 L61.8895072,7.04220457 L62.2947707,6.57308389 C62.9807511,5.77901371 63.9236503,5.33816659 64.893572,5.26733212 C65.8634937,5.19649765 66.8604378,5.49567583 67.654508,6.18165625 C68.4205714,6.84344222 68.8909062,7.7835439 68.961185,8.79343237 L68.961185,8.79343237 L71.9035758,51.0748552 C72.3501317,57.4917516 70.153451,63.4821635 66.2409072,67.9799903 C62.3283634,72.4778171 56.6999565,75.4830587 50.2830601,75.9296145 C49.7122358,75.9693386 49.1401416,75.988016 48.5679418,75.9856087 L48.5679418,75.9856087 L47.7382191,75.9821181 C41.2765448,75.9549337 35.4376151,73.3112119 31.2209002,69.0588676 C27.0041853,64.8065233 24.409685,58.9455564 24.4368693,52.483882 C24.4379789,52.2201464 24.4435471,51.9564484 24.4535717,51.692901 L24.4535717,51.692901 L26.0960282,8.51248044 C26.1359132,7.46389769 26.5970445,6.53075078 27.3103501,5.86972081 C28.0236558,5.20869084 28.9891359,4.81977781 30.0377186,4.85966282 Z" id="路径-6" stroke="#FFFFFF" stroke-width="2" stroke-linejoin="round"></path>
                <circle id="椭圆形" stroke="#FFFFFF" stroke-width="1.4" cx="40.6090281" cy="24.7495944" r="3.3"></circle>
                <circle id="椭圆形备份" stroke="#FFFFFF" stroke-width="1.4" cx="59.8338672" cy="24.1127575" r="3.3"></circle>
                <path d="M-9.09494702e-13,-4.54747351e-13 C8.2943222,4.36045443 12.4414833,13.9614013 12.4414833,28.8028405 C12.4414833,51.0649994 9.19798127,70.2430099 22.2423723,72.809042 C26.8904057,73.7233816 30.1429482,71.3542103 32,65.7015281" id="路径-6备份" stroke="#FFFFFF" stroke-linecap="round" stroke-linejoin="round"></path>
                <path d="M8.9836847,8.03910885 C8.9836847,8.03910885 6.4836847,6.38205083 3.9836847,11.8004402" id="路径-7" stroke="#FFFFFF" stroke-linecap="round" stroke-linejoin="round"></path>
                <path d="M48.7332232,46.0698339 C52.9014123,46.0698339 56.595426,45.2419346 59.8152642,43.5861361 C60.8517953,43.5861361 61.6559252,45.4520075 62.227654,49.1837504 C62.7743818,47.7942297 62.7831228,45.4074084 62.253877,42.0232865 C62.6401953,41.1367848 64.2037236,39.6747509 66.9444619,37.6371848 C68.3723999,47.6756282 68.7293844,54.3110055 68.0154154,57.5433166 C67.5428917,59.6825464 66.1216,62.8724145 63.627133,65.7693497 C63.627133,64.7904671 63.16064,63.0591046 62.227654,60.575262 C62.4859658,64.7990207 62.3305816,67.1675178 61.7615013,67.6807532 C58.6554733,70.4819816 54.3592946,72.6371848 48.7332232,72.6371848 C43.1995249,72.6371848 38.7866632,70.5243212 35.5223937,67.7723415 C35.293967,66.2137468 35.3861161,63.8147203 35.7988408,60.575262 C34.4519411,62.4702454 33.7784912,64.3239682 33.7784912,66.1364305 C30.8809777,63.1182425 29.1976412,59.7236252 28.7584404,57.5433166 C28.1257031,54.4022415 28.270779,47.7668642 29.1936682,37.6371848 C33.4986067,39.3808241 35.4939685,40.9929734 35.1797537,42.4736324 C34.7078127,44.6975368 34.9141751,46.9330613 35.7988408,49.1802061 C35.8163228,45.4508261 36.3618007,43.5861361 37.4352745,43.5861361 C40.9691436,45.3059248 44.4852555,46.0698339 48.7332232,46.0698339 Z" id="路径-8" fill="#FFFFFF"></path>
            </g>
        </g>
    </g>
</svg>