<?xml version="1.0" encoding="UTF-8"?>
<svg width="88px" height="88px" viewBox="0 0 88 88" version="1.1" xmlns="http://www.w3.org/2000/svg" xmlns:xlink="http://www.w3.org/1999/xlink">
    <title>xiaologo</title>
    <defs>
        <filter id="filter-1">
            <feColorMatrix in="SourceGraphic" type="matrix" values="0 0 0 0 0.000000 0 0 0 0 0.000000 0 0 0 0 0.000000 0 0 0 1.000000 0"></feColorMatrix>
        </filter>
    </defs>
    <g id="我的" stroke="none" stroke-width="1" fill="none" fill-rule="evenodd">
        <g filter="url(#filter-1)" id="xiaologo">
            <g>
                <rect id="矩形" fill-opacity="0" fill="#FFFFFF" opacity="0" x="0" y="0" width="88" height="88"></rect>
                <path d="M36.9601463,11.9101661 L37.2005743,11.9119058 C38.1602619,11.9487133 39.0704182,12.347538 39.7479877,13.0281661 L39.7479877,13.0281661 L40.7826674,14.0675166 C44.1609151,17.4610141 48.7519646,19.3687484 53.5403237,19.3687484 L53.5403237,19.3687484 L57.7206045,19.3687484 C62.1461047,19.3687484 66.3549814,17.4532283 69.2617547,14.1162055 L69.2617547,14.1162055 L69.7038812,13.6086371 C70.3931132,12.8173876 71.3378129,12.3804121 72.308017,12.313557 C73.2782211,12.2467018 74.2739296,12.5499671 75.0651791,13.2391991 C75.8238756,13.9000752 76.2894989,14.8348743 76.3599284,15.8385761 L76.3599284,15.8385761 L79.3086723,57.8615839 C79.7609782,64.3074659 77.5577545,70.32645 73.6299838,74.84704 C69.7022131,79.3676301 64.0498954,82.3898261 57.6040134,82.8421321 C57.0263952,82.8826634 56.4474716,82.9017408 55.8684381,82.8993249 L55.8684381,82.8993249 L54.8923535,82.8952524 C48.4306782,82.8682924 42.5916568,80.2247734 38.3747942,75.9725754 C34.1579316,71.7203775 31.5632279,65.8595007 31.5901878,59.3978254 C31.5912996,59.1313533 31.5969631,58.8649197 31.6071759,58.5986411 L31.6071759,58.5986411 L33.2577295,15.5634774 C33.2979459,14.5149073 33.7593721,13.5819062 34.4728867,12.9211017 C35.1864012,12.2602972 36.1520042,11.8716894 37.2005743,11.9119058 Z" id="路径-6" stroke="#FFFFFF" stroke-width="2" stroke-linejoin="round"></path>
                <ellipse id="椭圆形" stroke="#FFFFFF" stroke-width="1.4" cx="47.8282074" cy="31.537804" rx="3.47792961" ry="3.49678942"></ellipse>
                <ellipse id="椭圆形备份" stroke="#FFFFFF" stroke-width="1.4" cx="67.3252122" cy="31.537804" rx="3.47792961" ry="3.49678942"></ellipse>
                <path d="M7,7 C15.3143194,11.3501225 19.4714792,20.9283203 19.4714792,35.7345934 C19.4714792,57.944003 16.2201572,77.076572 29.2959977,79.636524 C33.9552373,80.548697 37.2156216,78.1851394 39.0771506,72.545851" id="路径-6备份" stroke="#FFFFFF" stroke-linecap="round" stroke-linejoin="round"></path>
                <path d="M16.4847434,14.6634851 C16.4847434,14.6634851 13.8313365,13.1852188 11.1779296,18.0189797" id="路径-7" stroke="#FFFFFF" stroke-linecap="round" stroke-linejoin="round"></path>
                <path d="M55.8590554,51.8716999 C60.007583,51.8716999 63.6841719,51.0357726 66.8888221,49.363918 C67.9204638,49.363918 68.7208006,51.2478825 69.2898325,55.0158115 C69.8339814,53.6128168 69.8426811,51.2028509 69.3159318,47.7859138 C69.7004278,46.8908158 71.2565809,45.4146049 73.9843911,43.3572809 C75.4055935,53.4930653 75.7608941,60.1927846 75.0502929,63.4564388 C74.579998,65.6164124 73.1654106,68.8372121 70.6827102,71.7622383 C70.6827102,70.7738637 70.2184176,69.0257124 69.2898325,66.5177845 C69.5469258,70.7825002 69.3922745,73.1739642 68.8258787,73.6921764 C65.7345019,76.5205678 61.4585884,78.6966696 55.8590554,78.6966696 C50.3514597,78.6966696 45.9594136,76.5633179 42.7105418,73.7846528 C42.4831926,72.2109447 42.574907,69.7886553 42.9856849,66.5177845 C41.6451385,68.4311432 40.9748654,70.3028412 40.9748654,72.1328786 C38.0910195,69.0854238 36.4156233,65.6578896 35.9784943,63.4564388 C35.3487416,60.2849053 35.4931332,53.585186 36.4116691,43.3572809 C40.696301,45.117828 42.6822506,46.7456099 42.369518,48.2406267 C41.8998032,50.4860958 42.1051922,52.7432979 42.9856849,55.0122328 C43.0030844,51.2466896 43.5459892,49.363918 44.6143994,49.363918 C48.1315991,51.1003833 51.6311255,51.8716999 55.8590554,51.8716999 Z" id="路径-8" fill="#FFFFFF"></path>
            </g>
        </g>
    </g>
</svg>