<?xml version="1.0" encoding="UTF-8"?>
<svg width="131px" height="35px" viewBox="0 0 131 35" version="1.1" xmlns="http://www.w3.org/2000/svg" xmlns:xlink="http://www.w3.org/1999/xlink">
    <title>uilee</title>
    <g id="我的" stroke="none" stroke-width="1" fill="none" fill-rule="evenodd">
        <g id="uilee" fill-rule="nonzero">
            <path d="M12.5,35 C20.8333333,35 25,30.1310861 25,20.3932584 L25,20.3932584 L25,0 L19.345898,0 L19.345898,19.1011236 C19.345898,26.4419476 17.0731707,30.1123596 12.5277162,30.1123596 C7.98226164,30.1123596 5.70953437,26.4419476 5.70953437,19.1011236 L5.70953437,19.1011236 L5.70953437,0 L0,0 L0,20.3932584 C0,30.1310861 4.16666667,35 12.5,35 Z M36,6 C36.8070175,6 37.5087719,5.70175439 38.1052632,5.10526316 C38.7017544,4.50877193 39,3.80701754 39,3 C39,2.19298246 38.7017544,1.49122807 38.1052632,0.894736842 C37.5087719,0.298245614 36.8070175,0 36,0 C35.1929825,0 34.4912281,0.298245614 33.8947368,0.894736842 C33.2982456,1.49122807 33,2.19298246 33,3 C33,3.80701754 33.2982456,4.50877193 33.8947368,5.10526316 C34.4912281,5.70175439 35.1929825,6 36,6 Z M39,34 L39,12 L34,12 L34,34 L39,34 Z M64,34 L64,29.1268534 L53.7622378,29.1268534 L53.7622378,0 L48,0 L48,34 L64,34 Z M78.9155673,35 C83.9023747,35 87.2269129,32.6627078 88.8891821,27.9881235 L88.8891821,27.9881235 L83.7915567,27.1330166 C83.0897098,29.7173397 81.4643799,31.0095012 78.9155673,31.0095012 C77.2902375,31.0095012 76.0158311,30.3064133 75.0923483,28.9002375 C74.1688654,27.4940618 73.707124,25.7078385 73.707124,23.5415677 L73.707124,23.5415677 L89,23.5415677 L89,22.8004751 C89,19.152019 88.085752,16.2731591 86.2572559,14.1638955 C84.4287599,12.0546318 81.8799472,11 78.6108179,11 C75.3416887,11 72.7559367,12.111639 70.853562,14.3349169 C68.9511873,16.5581948 68,19.5130641 68,23.1995249 C68,26.695962 68.9881266,29.5368171 70.9643799,31.7220903 C72.9406332,33.9073634 75.591029,35 78.9155673,35 Z M84,21 L74,21 C74,19.5242718 74.4644809,18.1553398 75.3934426,16.8932039 C76.3224044,15.631068 77.5245902,15 79,15 C80.4754098,15 81.6775956,15.6019417 82.6065574,16.8058252 C83.5355191,18.0097087 84,19.407767 84,21 L84,21 Z M104.915567,35 C109.902375,35 113.226913,32.6627078 114.889182,27.9881235 L114.889182,27.9881235 L109.791557,27.1330166 C109.08971,29.7173397 107.46438,31.0095012 104.915567,31.0095012 C103.290237,31.0095012 102.015831,30.3064133 101.092348,28.9002375 C100.168865,27.4940618 99.707124,25.7078385 99.707124,23.5415677 L99.707124,23.5415677 L115,23.5415677 L115,22.8004751 C115,19.152019 114.085752,16.2731591 112.257256,14.1638955 C110.42876,12.0546318 107.879947,11 104.610818,11 C101.341689,11 98.7559367,12.111639 96.853562,14.3349169 C94.9511873,16.5581948 94,19.5130641 94,23.1995249 C94,26.695962 94.9881266,29.5368171 96.9643799,31.7220903 C98.9406332,33.9073634 101.591029,35 104.915567,35 Z M110,21 L100,21 C100,19.5242718 100.464481,18.1553398 101.393443,16.8932039 C102.322404,15.631068 103.52459,15 105,15 C106.47541,15 107.677596,15.6019417 108.606557,16.8058252 C109.535519,18.0097087 110,19.407767 110,21 L110,21 Z" id="UiLee." fill="#FFFFFF"></path>
            <path d="M127.027972,35 C128.146853,35 129.088578,34.5990676 129.853147,33.7972028 C130.617716,32.995338 131,32.034965 131,30.9160839 C131,29.7972028 130.608392,28.8648019 129.825175,28.1188811 C129.041958,27.3729604 128.100233,27 127,27 C125.899767,27 124.958042,27.3916084 124.174825,28.1748252 C123.391608,28.958042 123,29.8997669 123,31 C123,32.1002331 123.391608,33.041958 124.174825,33.8251748 C124.958042,34.6083916 125.909091,35 127.027972,35 Z" id="路径" fill="#CF000F"></path>
        </g>
    </g>
</svg>